<svg xmlns="http://www.w3.org/2000/svg" width="159" height="60" viewBox="0 0 159 60"><g><g><path fill="#ea4335" d="M96.88 38.53c-.062 5.125-1.834 9.354-5.317 12.689-3.482 3.333-7.72 5-12.712 5-5.053 0-9.322-1.667-12.804-5-3.482-3.335-5.223-7.564-5.223-12.689 0-5.248 1.71-9.6 5.13-13.058 3.421-3.458 7.72-5.187 12.897-5.187 5.116 0 9.4 1.729 12.851 5.187 3.452 3.458 5.177 7.81 5.177 13.058 0 0 .062-5.124 0 0zm-2.59-15.466c-4.375-3.951-9.522-5.928-15.439-5.928-5.978 0-11.155 1.977-15.531 5.928-4.376 3.952-6.533 9.107-6.472 15.466 0 6.113 2.203 11.114 6.61 15.004 4.407 3.89 9.538 5.834 15.394 5.834 5.793 0 10.909-1.944 15.346-5.834 4.438-3.89 6.657-8.891 6.657-15.004 0-6.36-2.188-11.514-6.564-15.466z"/></g><g><path fill="#fbbc05" d="M79.472 53.232c4.154.47 8.82-2.57 10.596-4.375 5.739-5.837 5.708-15.422-.135-21.182-1.96-1.932-6.175-4.665-10.467-4.25z"/></g><g><path fill="#0879c9" d="M5.626 59.385H4.088c-1.916 0-3.438-1.582-3.438-3.444V30.678a8.59 8.59 0 0 1 .646-3.316 8.749 8.749 0 0 1 1.792-2.724 8.651 8.651 0 0 1 2.672-1.842 8.14 8.14 0 0 1 3.303-.671c1.13 0 2.166.195 3.117.585.95.39 1.815.913 2.594 1.585.771.67 1.457 1.46 2.049 2.372a16.654 16.654 0 0 1 1.511 2.888l7.806 19.252 8.53-20.282c.764-2.084 1.855-3.676 3.28-4.77 1.418-1.083 3.163-1.63 5.236-1.63 1.308 0 2.493.265 3.544.788a8.62 8.62 0 0 1 2.72 2.115 9.404 9.404 0 0 1 1.729 3.067 10.86 10.86 0 0 1 .607 3.614v24.232c0 1.86-1.458 3.444-3.437 3.444H46.81a3.436 3.436 0 0 1-3.437-3.444V39.213c0-.192.016-.38.046-.564v-7.401l-8.265 18.137a54.584 54.584 0 0 1-1.62 3.301c-.53 1-1.13 1.85-1.8 2.56a7.242 7.242 0 0 1-2.306 1.647c-.873.39-1.917.585-3.155.585-1.122 0-2.143-.234-3.054-.695a9.611 9.611 0 0 1-2.493-1.833 13.92 13.92 0 0 1-1.995-2.591 31.011 31.011 0 0 1-1.589-3.02l-8.125-17.77v7.08c.03.184.046.372.046.564v16.728c0 1.878-1.428 3.444-3.437 3.444"/></g><g><path fill="#34a853" d="M79.54 15.094c.267-2.699 3.167-6.997 4.59-8.093 3.013-2.324 6.386-2 10.466-1.545-.309 1.017-1.894 3.31-2.445 4.013-2.94 3.74-7.42 5.63-12.61 5.625 0 0-.267 2.699 0 0zm76.042 32.504v.055a3.705 3.705 0 0 1 3.05 3.638v1.652a3.705 3.705 0 0 1-3.05 3.637v.055h-3.179c-.314 1.859-2.177 3.287-4.429 3.287-2.252 0-4.115-1.428-4.429-3.287h-21.193c-.314 1.859-2.177 3.287-4.429 3.287-2.472 0-4.476-1.72-4.476-3.843 0-.193.017-.383.05-.569a11.717 11.717 0 0 1-2.881-2.075 11.798 11.798 0 0 1-2.4-3.394 9.337 9.337 0 0 1-.911-4.035V25.677a3.7 3.7 0 0 1 3.686-3.693h1.65a3.7 3.7 0 0 1 3.685 3.684v17.28c0 1.11-.1 2.98.75 3.864.851.885 2.654.785 3.607.786zM57.001 1.155c.92 2.646 5.296 8.289 7.84 10.032 3.077 2.108 9.442 3.808 14.112 3.925-.414-3.408-3.94-9.266-6.738-11.792C68.949.37 61.895-.09 57 1.155"/></g><g><path fill="#666" d="M77.138 38.177c-1.704.413-7.23 2.984-5.081 5.05 2.085 2.004 4.525-3.482 5.081-5.05m-.146-2.204c-.533-1.802-3.038-7.052-5.033-5.048-1.91 1.92 3.214 4.805 5.033 5.048M76.576 37c-1.323-.523-7.062-3.053-7.062.004 0 2.995 6.078.859 7.062-.004"/></g></g></svg>